<mxfile host="app.diagrams.net" agent="Mozilla/5.0 (Windows NT 10.0; Win64; x64) AppleWebKit/537.36 (KHTML, like Gecko) Chrome/141.0.0.0 Safari/537.36" version="28.2.7">
  <diagram name="Page-1" id="r6B8x0QKH-kvrP_j_i89">
    <mxGraphModel dx="703" dy="800" grid="1" gridSize="10" guides="1" tooltips="1" connect="1" arrows="1" fold="1" page="1" pageScale="1" pageWidth="850" pageHeight="1100" math="0" shadow="0">
      <root>
        <mxCell id="0" />
        <mxCell id="1" parent="0" />
        <mxCell id="kIlkW52egTvyDx5EiE2C-23" style="edgeStyle=none;curved=1;rounded=0;orthogonalLoop=1;jettySize=auto;html=1;exitX=0.5;exitY=1;exitDx=0;exitDy=0;entryX=0.75;entryY=0;entryDx=0;entryDy=0;fontSize=12;startSize=8;endSize=8;" edge="1" parent="1" source="kIlkW52egTvyDx5EiE2C-1" target="kIlkW52egTvyDx5EiE2C-9">
          <mxGeometry relative="1" as="geometry" />
        </mxCell>
        <mxCell id="kIlkW52egTvyDx5EiE2C-24" style="edgeStyle=none;curved=1;rounded=0;orthogonalLoop=1;jettySize=auto;html=1;exitX=0.75;exitY=1;exitDx=0;exitDy=0;entryX=0.5;entryY=0;entryDx=0;entryDy=0;fontSize=12;startSize=8;endSize=8;" edge="1" parent="1" source="kIlkW52egTvyDx5EiE2C-1" target="kIlkW52egTvyDx5EiE2C-11">
          <mxGeometry relative="1" as="geometry" />
        </mxCell>
        <mxCell id="kIlkW52egTvyDx5EiE2C-1" value="" style="rounded=1;whiteSpace=wrap;html=1;" vertex="1" parent="1">
          <mxGeometry x="230" y="150" width="210" height="50" as="geometry" />
        </mxCell>
        <mxCell id="kIlkW52egTvyDx5EiE2C-2" value="Home : pay the tax" style="text;strokeColor=none;fillColor=none;html=1;align=center;verticalAlign=middle;whiteSpace=wrap;rounded=0;fontSize=16;" vertex="1" parent="1">
          <mxGeometry x="255" y="160" width="165" height="30" as="geometry" />
        </mxCell>
        <mxCell id="kIlkW52egTvyDx5EiE2C-10" style="edgeStyle=none;curved=1;rounded=0;orthogonalLoop=1;jettySize=auto;html=1;exitX=0;exitY=0.25;exitDx=0;exitDy=0;entryX=0;entryY=0.5;entryDx=0;entryDy=0;fontSize=12;startSize=8;endSize=8;" edge="1" parent="1" source="kIlkW52egTvyDx5EiE2C-4" target="kIlkW52egTvyDx5EiE2C-5">
          <mxGeometry relative="1" as="geometry" />
        </mxCell>
        <mxCell id="kIlkW52egTvyDx5EiE2C-27" style="edgeStyle=none;curved=1;rounded=0;orthogonalLoop=1;jettySize=auto;html=1;exitX=0;exitY=0.5;exitDx=0;exitDy=0;entryX=0;entryY=0.5;entryDx=0;entryDy=0;fontSize=12;startSize=8;endSize=8;" edge="1" parent="1" source="kIlkW52egTvyDx5EiE2C-4" target="kIlkW52egTvyDx5EiE2C-17">
          <mxGeometry relative="1" as="geometry">
            <Array as="points">
              <mxPoint x="30" y="350" />
            </Array>
          </mxGeometry>
        </mxCell>
        <mxCell id="kIlkW52egTvyDx5EiE2C-4" value="" style="rounded=1;whiteSpace=wrap;html=1;" vertex="1" parent="1">
          <mxGeometry x="110" y="245" width="80" height="30" as="geometry" />
        </mxCell>
        <mxCell id="kIlkW52egTvyDx5EiE2C-25" style="edgeStyle=none;curved=1;rounded=0;orthogonalLoop=1;jettySize=auto;html=1;entryX=0.5;entryY=0;entryDx=0;entryDy=0;fontSize=12;startSize=8;endSize=8;" edge="1" parent="1" source="kIlkW52egTvyDx5EiE2C-5" target="kIlkW52egTvyDx5EiE2C-6">
          <mxGeometry relative="1" as="geometry" />
        </mxCell>
        <mxCell id="kIlkW52egTvyDx5EiE2C-32" style="edgeStyle=none;curved=1;rounded=0;orthogonalLoop=1;jettySize=auto;html=1;entryX=0;entryY=0.75;entryDx=0;entryDy=0;fontSize=12;startSize=8;endSize=8;" edge="1" parent="1" target="kIlkW52egTvyDx5EiE2C-30">
          <mxGeometry relative="1" as="geometry">
            <mxPoint x="110" y="260" as="sourcePoint" />
            <Array as="points">
              <mxPoint x="-30" y="250" />
            </Array>
          </mxGeometry>
        </mxCell>
        <mxCell id="kIlkW52egTvyDx5EiE2C-5" value="Game" style="text;strokeColor=none;fillColor=none;html=1;align=center;verticalAlign=middle;whiteSpace=wrap;rounded=0;fontSize=16;" vertex="1" parent="1">
          <mxGeometry x="125" y="250" width="50" height="20" as="geometry" />
        </mxCell>
        <mxCell id="kIlkW52egTvyDx5EiE2C-6" value="" style="rounded=1;whiteSpace=wrap;html=1;" vertex="1" parent="1">
          <mxGeometry x="110" y="305" width="80" height="30" as="geometry" />
        </mxCell>
        <mxCell id="kIlkW52egTvyDx5EiE2C-26" style="edgeStyle=none;curved=1;rounded=0;orthogonalLoop=1;jettySize=auto;html=1;entryX=0.5;entryY=0;entryDx=0;entryDy=0;fontSize=12;startSize=8;endSize=8;" edge="1" parent="1" source="kIlkW52egTvyDx5EiE2C-7" target="kIlkW52egTvyDx5EiE2C-13">
          <mxGeometry relative="1" as="geometry" />
        </mxCell>
        <mxCell id="kIlkW52egTvyDx5EiE2C-7" value="break" style="text;strokeColor=none;fillColor=none;html=1;align=center;verticalAlign=middle;whiteSpace=wrap;rounded=0;fontSize=16;" vertex="1" parent="1">
          <mxGeometry x="125" y="310" width="50" height="20" as="geometry" />
        </mxCell>
        <mxCell id="kIlkW52egTvyDx5EiE2C-8" value="" style="rounded=1;whiteSpace=wrap;html=1;" vertex="1" parent="1">
          <mxGeometry x="260" y="245" width="80" height="30" as="geometry" />
        </mxCell>
        <mxCell id="kIlkW52egTvyDx5EiE2C-9" value="Music" style="text;strokeColor=none;fillColor=none;html=1;align=center;verticalAlign=middle;whiteSpace=wrap;rounded=0;fontSize=16;" vertex="1" parent="1">
          <mxGeometry x="275" y="250" width="50" height="20" as="geometry" />
        </mxCell>
        <mxCell id="kIlkW52egTvyDx5EiE2C-11" value="" style="rounded=1;whiteSpace=wrap;html=1;" vertex="1" parent="1">
          <mxGeometry x="400" y="245" width="120" height="30" as="geometry" />
        </mxCell>
        <mxCell id="kIlkW52egTvyDx5EiE2C-12" value="wall of fame" style="text;strokeColor=none;fillColor=none;html=1;align=center;verticalAlign=middle;whiteSpace=wrap;rounded=0;fontSize=16;" vertex="1" parent="1">
          <mxGeometry x="415" y="250" width="95" height="20" as="geometry" />
        </mxCell>
        <mxCell id="kIlkW52egTvyDx5EiE2C-13" value="" style="rounded=1;whiteSpace=wrap;html=1;" vertex="1" parent="1">
          <mxGeometry x="110" y="365" width="80" height="30" as="geometry" />
        </mxCell>
        <mxCell id="kIlkW52egTvyDx5EiE2C-14" value="tutoriel" style="text;strokeColor=none;fillColor=none;html=1;align=center;verticalAlign=middle;whiteSpace=wrap;rounded=0;fontSize=16;" vertex="1" parent="1">
          <mxGeometry x="125" y="370" width="50" height="20" as="geometry" />
        </mxCell>
        <mxCell id="kIlkW52egTvyDx5EiE2C-16" style="edgeStyle=none;curved=1;rounded=0;orthogonalLoop=1;jettySize=auto;html=1;exitX=0;exitY=0.25;exitDx=0;exitDy=0;entryX=0;entryY=0.5;entryDx=0;entryDy=0;fontSize=12;startSize=8;endSize=8;" edge="1" parent="1" source="kIlkW52egTvyDx5EiE2C-17" target="kIlkW52egTvyDx5EiE2C-18">
          <mxGeometry relative="1" as="geometry" />
        </mxCell>
        <mxCell id="kIlkW52egTvyDx5EiE2C-17" value="" style="rounded=1;whiteSpace=wrap;html=1;" vertex="1" parent="1">
          <mxGeometry x="110" y="420" width="80" height="30" as="geometry" />
        </mxCell>
        <mxCell id="kIlkW52egTvyDx5EiE2C-18" value="Quizz" style="text;strokeColor=none;fillColor=none;html=1;align=center;verticalAlign=middle;whiteSpace=wrap;rounded=0;fontSize=16;" vertex="1" parent="1">
          <mxGeometry x="125" y="425" width="50" height="20" as="geometry" />
        </mxCell>
        <mxCell id="kIlkW52egTvyDx5EiE2C-19" style="edgeStyle=none;curved=1;rounded=0;orthogonalLoop=1;jettySize=auto;html=1;exitX=0;exitY=0.25;exitDx=0;exitDy=0;entryX=0;entryY=0.5;entryDx=0;entryDy=0;fontSize=12;startSize=8;endSize=8;" edge="1" parent="1" source="kIlkW52egTvyDx5EiE2C-20" target="kIlkW52egTvyDx5EiE2C-21">
          <mxGeometry relative="1" as="geometry" />
        </mxCell>
        <mxCell id="kIlkW52egTvyDx5EiE2C-20" value="" style="rounded=1;whiteSpace=wrap;html=1;" vertex="1" parent="1">
          <mxGeometry x="100" y="530" width="100" height="30" as="geometry" />
        </mxCell>
        <mxCell id="kIlkW52egTvyDx5EiE2C-21" value="Next LVL" style="text;strokeColor=none;fillColor=none;html=1;align=center;verticalAlign=middle;whiteSpace=wrap;rounded=0;fontSize=16;" vertex="1" parent="1">
          <mxGeometry x="112.5" y="535" width="75" height="20" as="geometry" />
        </mxCell>
        <mxCell id="kIlkW52egTvyDx5EiE2C-22" style="edgeStyle=none;curved=1;rounded=0;orthogonalLoop=1;jettySize=auto;html=1;entryX=0.625;entryY=-0.033;entryDx=0;entryDy=0;entryPerimeter=0;fontSize=12;startSize=8;endSize=8;exitX=0.25;exitY=1;exitDx=0;exitDy=0;" edge="1" parent="1" source="kIlkW52egTvyDx5EiE2C-1" target="kIlkW52egTvyDx5EiE2C-4">
          <mxGeometry relative="1" as="geometry" />
        </mxCell>
        <mxCell id="kIlkW52egTvyDx5EiE2C-29" style="edgeStyle=none;curved=1;rounded=0;orthogonalLoop=1;jettySize=auto;html=1;exitX=0;exitY=0.25;exitDx=0;exitDy=0;entryX=0;entryY=0.5;entryDx=0;entryDy=0;fontSize=12;startSize=8;endSize=8;" edge="1" parent="1" source="kIlkW52egTvyDx5EiE2C-30" target="kIlkW52egTvyDx5EiE2C-31">
          <mxGeometry relative="1" as="geometry" />
        </mxCell>
        <mxCell id="kIlkW52egTvyDx5EiE2C-34" style="edgeStyle=none;curved=1;rounded=0;orthogonalLoop=1;jettySize=auto;html=1;exitX=0.5;exitY=1;exitDx=0;exitDy=0;entryX=0.5;entryY=0;entryDx=0;entryDy=0;fontSize=12;startSize=8;endSize=8;" edge="1" parent="1" source="kIlkW52egTvyDx5EiE2C-30" target="kIlkW52egTvyDx5EiE2C-21">
          <mxGeometry relative="1" as="geometry" />
        </mxCell>
        <mxCell id="kIlkW52egTvyDx5EiE2C-30" value="" style="rounded=1;whiteSpace=wrap;html=1;" vertex="1" parent="1">
          <mxGeometry x="100" y="480" width="100" height="30" as="geometry" />
        </mxCell>
        <mxCell id="kIlkW52egTvyDx5EiE2C-31" value="Win" style="text;strokeColor=none;fillColor=none;html=1;align=center;verticalAlign=middle;whiteSpace=wrap;rounded=0;fontSize=16;" vertex="1" parent="1">
          <mxGeometry x="112.5" y="485" width="75" height="20" as="geometry" />
        </mxCell>
        <mxCell id="kIlkW52egTvyDx5EiE2C-35" value="" style="rounded=1;whiteSpace=wrap;html=1;" vertex="1" parent="1">
          <mxGeometry x="30" y="600" width="250" height="30" as="geometry" />
        </mxCell>
        <mxCell id="kIlkW52egTvyDx5EiE2C-36" value="registration wall of fame" style="text;strokeColor=none;fillColor=none;html=1;align=center;verticalAlign=middle;whiteSpace=wrap;rounded=0;fontSize=16;" vertex="1" parent="1">
          <mxGeometry x="45" y="605" width="205" height="20" as="geometry" />
        </mxCell>
        <mxCell id="kIlkW52egTvyDx5EiE2C-38" style="edgeStyle=none;curved=1;rounded=0;orthogonalLoop=1;jettySize=auto;html=1;entryX=0.941;entryY=-0.05;entryDx=0;entryDy=0;entryPerimeter=0;fontSize=12;startSize=8;endSize=8;exitX=0.838;exitY=0.967;exitDx=0;exitDy=0;exitPerimeter=0;" edge="1" parent="1" source="kIlkW52egTvyDx5EiE2C-4" target="kIlkW52egTvyDx5EiE2C-36">
          <mxGeometry relative="1" as="geometry">
            <Array as="points">
              <mxPoint x="320" y="350" />
            </Array>
          </mxGeometry>
        </mxCell>
        <mxCell id="kIlkW52egTvyDx5EiE2C-39" value="End of the game or game Over" style="text;strokeColor=none;fillColor=none;html=1;align=center;verticalAlign=middle;whiteSpace=wrap;rounded=0;fontSize=16;" vertex="1" parent="1">
          <mxGeometry x="257.5" y="400" width="160" height="30" as="geometry" />
        </mxCell>
      </root>
    </mxGraphModel>
  </diagram>
</mxfile>
